<?xml version="1.0" standalone="no"?>
<!DOCTYPE svg PUBLIC "-//W3C//DTD SVG 20010904//EN"
 "http://www.w3.org/TR/2001/REC-SVG-20010904/DTD/svg10.dtd">
<svg version="1.0" xmlns="http://www.w3.org/2000/svg"
 width="300.000000pt" height="300.000000pt" viewBox="0 0 300.000000 300.000000"
 preserveAspectRatio="xMidYMid meet">
<metadata>
Created by potrace 1.11, written by Peter Selinger 2001-2013
</metadata>
<g transform="translate(0.000000,300.000000) scale(0.100000,-0.100000)"
fill="#000000" stroke="none">
<path d="M1044 2395 c-93 -24 -222 -82 -299 -135 -37 -25 -46 -39 -60 -87 -9
-32 -18 -65 -21 -74 -4 -14 6 -18 52 -24 32 -4 88 -15 126 -25 l68 -18 78 30
c315 123 695 124 992 2 129 -52 154 -69 182 -121 46 -83 130 -405 158 -598 20
-139 13 -128 74 -122 79 8 126 31 126 61 0 99 -110 571 -216 928 -19 65 -352
208 -484 208 -40 0 -86 -35 -59 -45 8 -2 48 -16 89 -31 83 -29 235 -103 227
-110 -2 -2 -25 5 -51 16 -137 58 -336 94 -526 94 -191 0 -341 -23 -502 -78
-71 -24 -128 -41 -128 -39 0 9 228 113 293 134 86 27 83 25 67 44 -18 21 -79
18 -186 -10z"/>
<path d="M500 2044 c-264 -69 -436 -317 -400 -576 14 -103 74 -223 149 -297
61 -59 153 -116 175 -108 9 4 16 36 20 96 l8 91 -55 50 c-78 71 -110 147 -105
249 4 92 30 152 94 215 176 176 447 129 838 -146 l98 -69 52 36 c72 50 112 82
106 88 -23 20 -270 188 -324 219 -248 145 -479 199 -656 152z"/>
<path d="M2370 2053 c0 -11 49 -185 52 -188 2 -1 23 -7 48 -14 61 -17 141 -72
177 -124 122 -172 62 -395 -131 -487 -177 -86 -389 -26 -730 207 l-109 74 -51
-35 c-28 -20 -64 -46 -80 -59 l-29 -24 54 -40 c393 -290 664 -391 912 -338
265 56 454 317 417 577 -31 217 -187 387 -405 443 -63 16 -125 20 -125 8z"/>
<path d="M1954 1951 c-126 -62 -234 -133 -509 -336 -251 -185 -360 -258 -472
-315 -87 -45 -219 -90 -262 -90 -31 0 -41 -18 -41 -77 l0 -32 36 21 c54 32
129 28 205 -9 l61 -31 88 44 c108 54 246 146 500 335 304 224 462 323 588 367
38 13 39 21 8 88 -24 52 -57 84 -87 84 -9 0 -60 -22 -115 -49z"/>
<path d="M561 1713 c-63 -273 -102 -523 -117 -756 l-7 -107 74 -73 c113 -111
266 -181 424 -193 l70 -6 59 75 c33 41 59 78 58 82 0 4 -26 18 -57 30 -71 29
-158 82 -190 115 -25 26 -23 25 42 -7 88 -43 255 -97 368 -119 118 -23 328
-23 452 0 105 19 267 73 357 118 53 26 58 28 42 9 -33 -36 -122 -90 -193 -117
-37 -14 -69 -27 -71 -28 -1 -2 26 -38 60 -81 l63 -77 70 6 c159 13 312 83 423
193 69 70 72 74 72 120 0 26 -3 65 -7 86 -5 33 -9 38 -27 33 -124 -35 -273
-28 -414 20 -64 21 -75 22 -95 10 -38 -24 -209 -84 -292 -102 -109 -23 -312
-23 -423 0 -123 26 -243 69 -348 126 -109 59 -172 72 -222 46 -36 -18 -70 -52
-83 -81 -12 -27 -2 88 22 250 19 129 76 400 104 491 8 26 13 50 10 52 -9 9
-85 22 -136 22 l-56 0 -32 -137z"/>
</g>
</svg>
